<?xml version="1.0" standalone="no"?>
<!DOCTYPE svg PUBLIC "-//W3C//DTD SVG 20010904//EN"
 "http://www.w3.org/TR/2001/REC-SVG-20010904/DTD/svg10.dtd">
<svg version="1.0" xmlns="http://www.w3.org/2000/svg"
 width="1106.000000pt" height="1178.000000pt" viewBox="0 0 1106.000000 1178.000000"
 preserveAspectRatio="xMidYMid meet">

<g transform="translate(0.000000,1178.000000) scale(0.100000,-0.100000)"
fill="#000000" stroke="none">
<path d="M6488 11763 c12 -2 30 -2 40 0 9 3 -1 5 -23 4 -22 0 -30 -2 -17 -4z"/>
<path d="M6903 11763 c15 -2 39 -2 55 0 15 2 2 4 -28 4 -30 0 -43 -2 -27 -4z"/>
<path d="M6487 10535 c-54 -7 -122 -21 -150 -31 -69 -22 -241 -96 -348 -150
-76 -38 -91 -49 -119 -96 -25 -41 -30 -55 -21 -68 42 -58 43 -68 22 -133 -22
-69 -46 -189 -56 -288 -6 -61 -5 -67 20 -97 15 -18 40 -40 57 -49 l30 -18 -6
-75 c-4 -41 -9 -92 -12 -112 -5 -32 -2 -39 21 -54 15 -10 44 -17 69 -17 42 1
43 1 60 -47 20 -57 38 -74 66 -67 17 4 20 0 20 -34 0 -34 3 -39 23 -39 17 0
28 -11 45 -45 12 -25 22 -60 22 -78 0 -18 7 -42 15 -54 14 -20 13 -23 -15 -39
-16 -10 -34 -32 -39 -49 -31 -98 -122 -450 -119 -462 2 -8 15 -22 31 -31 55
-33 95 24 132 186 40 175 54 220 92 295 121 243 438 315 684 156 114 -74 205
-187 251 -315 30 -82 36 -231 13 -309 l-16 -57 33 -29 c89 -77 198 -100 277
-59 103 52 177 203 182 369 2 45 2 44 9 -14 14 -118 -18 -275 -73 -356 -55
-82 -192 -149 -306 -149 -61 0 -172 29 -206 53 -18 14 -22 9 -63 -76 -36 -74
-60 -107 -128 -174 l-83 -84 -41 -130 c-48 -152 -45 -150 -196 -170 -156 -21
-425 5 -695 66 -61 14 -113 24 -114 23 -1 -2 -12 -32 -23 -68 -47 -145 -65
-237 -70 -352 -4 -100 -1 -127 17 -187 12 -39 23 -71 25 -71 1 0 35 11 75 25
86 29 220 58 351 77 121 16 582 16 740 -1 306 -32 558 -75 848 -142 96 -23
175 -39 176 -37 1 1 24 71 50 153 64 200 161 445 254 638 41 86 77 156 78 154
2 -2 -6 -32 -17 -67 -11 -36 -42 -144 -69 -240 l-48 -175 134 -135 134 -136
25 -124 c13 -69 25 -133 25 -144 0 -10 74 -94 168 -190 185 -191 297 -319 370
-428 57 -85 114 -195 132 -255 9 -31 19 -43 32 -43 24 0 23 -9 -8 -115 -25
-86 -25 -92 -13 -191 l12 -102 118 -56 c66 -31 119 -57 120 -58 0 -2 128 -975
284 -2163 156 -1188 284 -2155 284 -2150 1 6 -96 960 -215 2120 l-217 2110 52
81 c51 79 53 86 71 210 11 71 20 142 20 158 0 21 -30 78 -95 182 l-96 152
-175 567 -175 566 -357 547 c-196 301 -356 554 -355 562 1 8 7 38 14 67 31
137 -81 374 -314 663 -47 58 -95 115 -109 127 -18 17 -74 34 -222 68 -245 57
-280 75 -289 155 -7 62 -40 118 -73 126 -34 9 -113 -12 -238 -63 -91 -37 -115
-43 -144 -36 -33 8 -31 9 98 73 l132 65 -5 38 c-5 40 -37 82 -68 92 -26 9
-130 -30 -214 -80 -83 -49 -230 -155 -345 -250 -96 -78 -106 -84 -90 -55 21
40 224 242 345 343 115 97 120 103 118 137 -10 148 -48 481 -58 505 -16 39
-130 172 -180 209 -21 16 -56 35 -77 43 -59 20 -201 24 -311 8z m1699 -2126
c50 -65 139 -132 199 -149 40 -11 51 -11 81 3 39 19 39 20 21 -68 -15 -72 -26
-76 -100 -42 -67 31 -116 74 -162 143 -34 50 -90 164 -81 164 2 0 21 -23 42
-51z m-1091 -1113 c166 -24 354 -59 595 -112 113 -25 233 -48 268 -51 51 -5
62 -9 62 -24 0 -43 -197 -37 -465 15 -322 62 -422 71 -790 71 -354 -1 -456 -9
-748 -62 -127 -22 -150 -24 -158 -12 -11 17 -12 90 -1 107 13 20 176 48 502
86 93 11 621 -2 735 -18z"/>
<path d="M6603 9026 c-93 -30 -191 -104 -224 -168 -11 -21 -35 -95 -54 -165
-43 -164 -57 -202 -105 -288 l-38 -71 96 -13 c113 -15 240 -53 274 -81 l23
-20 -50 19 c-116 44 -302 51 -655 26 -254 -18 -472 -19 -570 -1 -41 8 -171 50
-288 95 -220 85 -286 100 -426 101 -58 0 -81 -6 -155 -39 -47 -21 -102 -43
-121 -50 -20 -6 -58 -34 -85 -61 -96 -97 -173 -144 -425 -261 -319 -147 -832
-403 -940 -469 -106 -64 -132 -87 -121 -109 11 -20 38 -337 51 -596 24 -493 1
-945 -64 -1258 -12 -59 -19 -104 -16 -100 4 5 321 530 705 1168 384 638 704
1166 710 1173 13 14 22 11 64 -17 18 -12 -81 -202 -354 -676 -528 -917 -720
-1266 -983 -1795 -199 -397 -319 -660 -438 -956 -392 -978 -489 -1685 -286
-2107 l37 -79 1045 2791 c574 1535 1047 2791 1050 2791 3 0 11 -4 17 -8 9 -6
-247 -757 -971 -2847 l-983 -2840 8 -100 c25 -320 146 -610 329 -790 l61 -60
19 25 c32 42 116 209 163 325 268 656 591 1913 992 3855 132 638 329 1663 424
2200 42 237 37 220 66 220 21 0 25 -4 20 -22 -2 -13 -239 -1332 -525 -2933
-286 -1600 -523 -2921 -526 -2935 -3 -14 25 27 62 90 290 498 688 970 1029
1221 70 51 237 139 265 139 41 0 48 22 55 192 21 490 -90 2125 -265 3905 -17
167 -30 313 -30 326 0 22 8 25 112 46 84 17 134 34 208 71 53 27 125 60 160
74 l63 26 66 -19 c36 -11 174 -47 306 -79 271 -68 450 -124 599 -187 158 -68
273 -88 501 -89 216 -1 261 8 271 52 3 15 7 34 9 42 2 8 6 24 9 35 5 19 0 20
-89 22 -170 3 -402 54 -1048 229 -120 32 -214 60 -209 62 5 1 135 -27 288 -63
401 -95 572 -131 730 -154 135 -20 305 -27 339 -15 9 4 25 24 36 46 11 21 50
71 86 111 90 98 134 169 184 295 58 148 69 194 69 293 0 198 -97 357 -266 436
-50 23 -74 28 -154 30 -59 2 -111 -3 -137 -11z m-1246 -952 c-3 -3 -12 -4 -19
-1 -8 3 -5 6 6 6 11 1 17 -2 13 -5z m50 -10 c-3 -3 -12 -4 -19 -1 -8 3 -5 6 6
6 11 1 17 -2 13 -5z"/>
<path d="M6440 7000 c-146 -8 -350 -32 -437 -50 l-48 -11 -22 -114 c-27 -136
-90 -329 -140 -428 -20 -40 -64 -108 -98 -152 -265 -342 -397 -791 -445 -1510
-5 -82 -15 -328 -20 -545 l-11 -395 -39 -35 c-78 -72 -127 -169 -156 -311 -21
-102 -15 -187 20 -286 41 -114 33 -180 -50 -434 -44 -133 -48 -152 -49 -254
-2 -94 -13 -160 -73 -447 -169 -798 -269 -1192 -337 -1328 -28 -55 -133 -157
-292 -282 -201 -159 -174 -146 -334 -169 -225 -33 -342 -69 -323 -100 20 -32
216 -92 423 -129 103 -18 156 -20 538 -20 472 0 465 -1 499 67 20 39 21 78 13
363 -3 121 26 280 85 462 70 214 151 366 374 703 175 262 282 469 362 694 64
180 70 241 44 447 -11 90 -19 215 -19 314 0 143 3 176 23 244 37 129 104 281
282 646 246 502 303 661 304 855 l1 100 -75 37 c-43 21 -66 37 -54 37 11 1 58
10 105 22 272 68 508 260 639 519 63 124 99 261 101 378 1 65 1 66 11 27 5
-22 7 -91 4 -155 -20 -412 -239 -704 -626 -836 l-65 -22 0 -193 c1 -194 1
-194 34 -289 143 -408 418 -861 624 -1026 39 -32 73 -59 74 -59 1 0 7 -43 14
-95 27 -227 99 -353 246 -432 93 -49 241 -280 467 -728 267 -528 452 -980 488
-1187 11 -66 10 -71 -23 -168 -45 -130 -104 -230 -191 -321 -64 -67 -77 -76
-139 -94 -106 -32 -269 -123 -269 -150 0 -25 179 -92 295 -110 152 -24 271 11
782 232 200 86 233 104 243 128 17 42 1 91 -110 320 -133 274 -168 400 -191
690 -37 467 -94 844 -185 1220 -59 243 -206 472 -544 850 -128 142 -195 229
-215 278 -8 18 -42 142 -76 275 -144 571 -242 841 -381 1049 l-45 66 43 67
c92 144 130 290 121 469 -10 204 -93 419 -250 653 l-76 112 18 34 c28 55 101
153 199 267 56 66 86 107 79 111 -27 15 -261 69 -377 88 -238 39 -520 54 -770
41z m131 -228 c-52 -257 -105 -400 -267 -718 -79 -155 -159 -319 -178 -365
-88 -214 -167 -482 -271 -919 -82 -345 -502 -2207 -544 -2410 l-19 -95 -1 110
c-5 555 208 1877 433 2696 125 454 237 708 473 1069 175 268 254 425 359 713
21 59 40 99 42 88 2 -10 -11 -86 -27 -169z"/>
<path d="M2517 5191 c-278 -331 -603 -640 -837 -796 -106 -71 -249 -141 -331
-162 l-70 -18 6 -35 c20 -115 82 -372 116 -482 95 -308 219 -522 340 -582 29
-14 56 -23 59 -19 4 5 184 481 400 1058 216 578 404 1078 416 1113 13 34 22
62 21 62 -2 0 -56 -63 -120 -139z"/>
<path d="M10062 995 c0 -16 2 -22 5 -12 2 9 2 23 0 30 -3 6 -5 -1 -5 -18z"/>
</g>
</svg>
